<mxfile host="app.diagrams.net" modified="2023-12-05T10:16:34.699Z" agent="Mozilla/5.0 (Windows NT 10.0; Win64; x64) AppleWebKit/537.36 (KHTML, like Gecko) Chrome/119.0.0.0 Safari/537.36 Edg/119.0.0.0" etag="dITV0ljZ_eyr1NjtdSbO" version="22.1.5" type="github">
  <diagram name="Page-1" id="929967ad-93f9-6ef4-fab6-5d389245f69c">
    <mxGraphModel dx="1828" dy="1512" grid="0" gridSize="10" guides="0" tooltips="0" connect="1" arrows="1" fold="1" page="0" pageScale="1.5" pageWidth="1169" pageHeight="826" background="none" math="0" shadow="0">
      <root>
        <mxCell id="0" style=";html=1;" />
        <mxCell id="1" style=";html=1;" parent="0" />
        <mxCell id="dA5viFin9e0n3fHfeGk1-1" value="" style="html=1;whiteSpace=wrap;" vertex="1" parent="1">
          <mxGeometry x="895" y="382" width="503" height="864" as="geometry" />
        </mxCell>
        <mxCell id="dA5viFin9e0n3fHfeGk1-2" value="ATM&lt;br&gt;Customer" style="shape=umlActor;verticalLabelPosition=bottom;verticalAlign=top;html=1;" vertex="1" parent="1">
          <mxGeometry x="682" y="622" width="30" height="60" as="geometry" />
        </mxCell>
        <mxCell id="dA5viFin9e0n3fHfeGk1-3" value="ATM Opertator" style="shape=umlActor;verticalLabelPosition=bottom;verticalAlign=top;html=1;" vertex="1" parent="1">
          <mxGeometry x="1548" y="990" width="30" height="60" as="geometry" />
        </mxCell>
        <mxCell id="dA5viFin9e0n3fHfeGk1-13" value="Withdraw Funds" style="ellipse;whiteSpace=wrap;html=1;" vertex="1" parent="1">
          <mxGeometry x="938" y="464" width="140" height="70" as="geometry" />
        </mxCell>
        <mxCell id="dA5viFin9e0n3fHfeGk1-14" value="Transfer Funds" style="ellipse;whiteSpace=wrap;html=1;" vertex="1" parent="1">
          <mxGeometry x="945" y="768" width="140" height="70" as="geometry" />
        </mxCell>
        <mxCell id="dA5viFin9e0n3fHfeGk1-15" value="Query Account" style="ellipse;whiteSpace=wrap;html=1;" vertex="1" parent="1">
          <mxGeometry x="931" y="614" width="140" height="70" as="geometry" />
        </mxCell>
        <mxCell id="dA5viFin9e0n3fHfeGk1-16" value="StartUp" style="ellipse;whiteSpace=wrap;html=1;" vertex="1" parent="1">
          <mxGeometry x="1071" y="1019" width="140" height="70" as="geometry" />
        </mxCell>
        <mxCell id="dA5viFin9e0n3fHfeGk1-17" value="Add Cash" style="ellipse;whiteSpace=wrap;html=1;" vertex="1" parent="1">
          <mxGeometry x="1113" y="920" width="140" height="70" as="geometry" />
        </mxCell>
        <mxCell id="dA5viFin9e0n3fHfeGk1-18" value="Shutdown" style="ellipse;whiteSpace=wrap;html=1;" vertex="1" parent="1">
          <mxGeometry x="1111" y="1136" width="140" height="70" as="geometry" />
        </mxCell>
        <mxCell id="dA5viFin9e0n3fHfeGk1-19" value="Validate PIN" style="ellipse;whiteSpace=wrap;html=1;" vertex="1" parent="1">
          <mxGeometry x="1220" y="625" width="140" height="70" as="geometry" />
        </mxCell>
        <mxCell id="dA5viFin9e0n3fHfeGk1-22" value="&amp;lt;&amp;lt;inlcude&amp;gt;&amp;gt;" style="html=1;verticalAlign=bottom;endArrow=open;dashed=1;endSize=8;curved=0;rounded=0;exitX=0.961;exitY=0.682;exitDx=0;exitDy=0;exitPerimeter=0;" edge="1" parent="1" source="dA5viFin9e0n3fHfeGk1-13" target="dA5viFin9e0n3fHfeGk1-19">
          <mxGeometry relative="1" as="geometry">
            <mxPoint x="1009" y="654" as="sourcePoint" />
            <mxPoint x="929" y="654" as="targetPoint" />
          </mxGeometry>
        </mxCell>
        <mxCell id="dA5viFin9e0n3fHfeGk1-23" value="&amp;lt;&amp;lt;inlcude&amp;gt;&amp;gt;" style="html=1;verticalAlign=bottom;endArrow=open;dashed=1;endSize=8;curved=0;rounded=0;exitX=1;exitY=0.5;exitDx=0;exitDy=0;entryX=0;entryY=0.5;entryDx=0;entryDy=0;" edge="1" parent="1" source="dA5viFin9e0n3fHfeGk1-15" target="dA5viFin9e0n3fHfeGk1-19">
          <mxGeometry relative="1" as="geometry">
            <mxPoint x="1083" y="522" as="sourcePoint" />
            <mxPoint x="1252" y="638" as="targetPoint" />
          </mxGeometry>
        </mxCell>
        <mxCell id="dA5viFin9e0n3fHfeGk1-25" value="&amp;lt;&amp;lt;inlcude&amp;gt;&amp;gt;" style="html=1;verticalAlign=bottom;endArrow=open;dashed=1;endSize=8;curved=0;rounded=0;exitX=1;exitY=0.5;exitDx=0;exitDy=0;" edge="1" parent="1" source="dA5viFin9e0n3fHfeGk1-14" target="dA5viFin9e0n3fHfeGk1-19">
          <mxGeometry relative="1" as="geometry">
            <mxPoint x="1081" y="659" as="sourcePoint" />
            <mxPoint x="1218" y="690" as="targetPoint" />
          </mxGeometry>
        </mxCell>
        <mxCell id="dA5viFin9e0n3fHfeGk1-26" value="" style="line;strokeWidth=1;fillColor=none;align=left;verticalAlign=middle;spacingTop=-1;spacingLeft=3;spacingRight=3;rotatable=0;labelPosition=right;points=[];portConstraint=eastwest;strokeColor=inherit;" vertex="1" parent="1">
          <mxGeometry x="913" y="617" width="40" height="8" as="geometry" />
        </mxCell>
        <mxCell id="dA5viFin9e0n3fHfeGk1-28" value="" style="endArrow=none;endSize=16;endFill=0;html=1;rounded=0;exitX=0.5;exitY=0.5;exitDx=0;exitDy=0;exitPerimeter=0;entryX=0.047;entryY=0.717;entryDx=0;entryDy=0;entryPerimeter=0;" edge="1" parent="1" source="dA5viFin9e0n3fHfeGk1-2" target="dA5viFin9e0n3fHfeGk1-14">
          <mxGeometry width="160" relative="1" as="geometry">
            <mxPoint x="703.9999999999998" y="659.5284810126584" as="sourcePoint" />
            <mxPoint x="1005" y="630" as="targetPoint" />
          </mxGeometry>
        </mxCell>
        <mxCell id="dA5viFin9e0n3fHfeGk1-29" value="" style="endArrow=none;endSize=16;endFill=0;html=1;rounded=0;exitX=0.486;exitY=0.663;exitDx=0;exitDy=0;exitPerimeter=0;entryX=0;entryY=0.5;entryDx=0;entryDy=0;" edge="1" parent="1" source="dA5viFin9e0n3fHfeGk1-2" target="dA5viFin9e0n3fHfeGk1-15">
          <mxGeometry width="160" relative="1" as="geometry">
            <mxPoint x="707" y="662" as="sourcePoint" />
            <mxPoint x="962" y="828" as="targetPoint" />
          </mxGeometry>
        </mxCell>
        <mxCell id="dA5viFin9e0n3fHfeGk1-30" value="" style="endArrow=none;endSize=16;endFill=0;html=1;rounded=0;exitX=0.5;exitY=0.5;exitDx=0;exitDy=0;exitPerimeter=0;entryX=0;entryY=0.5;entryDx=0;entryDy=0;" edge="1" parent="1" source="dA5viFin9e0n3fHfeGk1-2" target="dA5viFin9e0n3fHfeGk1-13">
          <mxGeometry width="160" relative="1" as="geometry">
            <mxPoint x="717" y="672" as="sourcePoint" />
            <mxPoint x="972" y="838" as="targetPoint" />
          </mxGeometry>
        </mxCell>
        <mxCell id="dA5viFin9e0n3fHfeGk1-31" value="" style="endArrow=none;endSize=16;endFill=0;html=1;rounded=0;exitX=1;exitY=0.5;exitDx=0;exitDy=0;" edge="1" parent="1" source="dA5viFin9e0n3fHfeGk1-17">
          <mxGeometry width="160" relative="1" as="geometry">
            <mxPoint x="1290" y="977.0000000000002" as="sourcePoint" />
            <mxPoint x="1549" y="1007.2481751824816" as="targetPoint" />
          </mxGeometry>
        </mxCell>
        <mxCell id="dA5viFin9e0n3fHfeGk1-32" value="" style="endArrow=none;endSize=16;endFill=0;html=1;rounded=0;exitX=1;exitY=1;exitDx=0;exitDy=0;" edge="1" parent="1" source="dA5viFin9e0n3fHfeGk1-16">
          <mxGeometry width="160" relative="1" as="geometry">
            <mxPoint x="1300" y="987.0000000000002" as="sourcePoint" />
            <mxPoint x="1559" y="1017.2481751824816" as="targetPoint" />
          </mxGeometry>
        </mxCell>
        <mxCell id="dA5viFin9e0n3fHfeGk1-33" value="" style="endArrow=none;endSize=16;endFill=0;html=1;rounded=0;exitX=1;exitY=1;exitDx=0;exitDy=0;entryX=0.5;entryY=0.5;entryDx=0;entryDy=0;entryPerimeter=0;" edge="1" parent="1" source="dA5viFin9e0n3fHfeGk1-18" target="dA5viFin9e0n3fHfeGk1-3">
          <mxGeometry width="160" relative="1" as="geometry">
            <mxPoint x="1310" y="997.0000000000002" as="sourcePoint" />
            <mxPoint x="1569" y="1027.2481751824816" as="targetPoint" />
          </mxGeometry>
        </mxCell>
      </root>
    </mxGraphModel>
  </diagram>
</mxfile>
